<?xml version="1.0" standalone="no"?>
<!DOCTYPE svg PUBLIC "-//W3C//DTD SVG 20010904//EN"
 "http://www.w3.org/TR/2001/REC-SVG-20010904/DTD/svg10.dtd">
<svg version="1.0" xmlns="http://www.w3.org/2000/svg"
 width="512.000000pt" height="512.000000pt" viewBox="0 0 512.000000 512.000000"
 preserveAspectRatio="xMidYMid meet">
<metadata>
Created by potrace 1.14, written by Peter Selinger 2001-2017
</metadata>
<g transform="translate(0.000000,512.000000) scale(0.100000,-0.100000)"
fill="#000000" stroke="none">
<path d="M2877 4419 c-141 -36 -263 -115 -352 -230 l-21 -26 -89 17 c-113 22
-365 20 -470 -3 -244 -55 -440 -162 -610 -332 -112 -111 -134 -139 -194 -240
-91 -156 -152 -328 -167 -480 -6 -56 -10 -66 -28 -69 -138 -24 -194 -39 -255
-69 -233 -115 -375 -350 -366 -604 2 -48 6 -97 8 -108 53 -229 197 -405 397
-482 117 -46 112 -46 730 -50 327 -3 596 -6 598 -7 2 -3 -19 -61 -74 -206 -14
-36 -29 -74 -34 -85 -36 -84 -140 -371 -140 -387 0 -31 27 -73 55 -86 36 -16
62 -15 96 5 24 14 38 41 79 148 28 71 55 139 59 150 5 11 41 103 79 205 39
102 77 201 86 220 l14 35 814 1 c1107 2 1259 4 1335 20 223 46 382 257 368
488 -9 150 -85 282 -213 369 -20 13 -31 28 -28 37 3 8 18 52 35 97 36 99 50
189 46 308 -5 145 -30 246 -91 366 -93 185 -253 334 -443 414 -127 53 -219 70
-367 68 l-90 -2 -13 62 c-33 162 -166 329 -322 404 -46 22 -106 46 -134 53
-79 20 -220 19 -298 -1z"/>
<path d="M1308 1457 c-21 -17 -52 -88 -144 -337 -64 -173 -116 -327 -116 -342
2 -76 83 -119 148 -79 28 17 42 47 139 307 154 412 151 399 97 449 -35 32 -87
33 -124 2z"/>
<path d="M2674 1463 c-11 -10 -25 -27 -31 -38 -28 -54 -233 -624 -233 -648 0
-15 12 -40 28 -57 22 -25 35 -31 70 -32 46 0 66 12 87 51 30 60 235 624 235
649 0 15 -10 40 -23 55 -30 38 -101 49 -133 20z"/>
<path d="M3318 1463 c-15 -9 -29 -24 -31 -32 -3 -9 -33 -88 -67 -176 -70 -181
-76 -221 -41 -259 52 -55 138 -38 168 32 35 83 122 323 124 344 11 82 -80 136
-153 91z"/>
<path d="M3909 1458 c-16 -15 -51 -94 -102 -233 -180 -484 -168 -444 -143
-494 28 -53 109 -63 151 -20 20 21 73 151 167 414 15 44 32 89 37 100 24 52
51 139 51 164 0 18 -11 41 -29 60 -37 39 -95 43 -132 9z"/>
</g>
</svg>
